<?xml version="1.0" encoding="UTF-8"?>
<svg width="30px" height="30px" viewBox="0 0 30 30" version="1.1" xmlns="http://www.w3.org/2000/svg" xmlns:xlink="http://www.w3.org/1999/xlink">
    <!-- Generator: Sketch 45.2 (43514) - http://www.bohemiancoding.com/sketch -->
    <title>calendar</title>
    <desc>Created with Sketch.</desc>
    <defs>
        <rect id="path-1" x="0" y="0" width="312" height="660.925781"></rect>
        <filter x="-6.1%" y="-2.6%" width="112.2%" height="105.7%" filterUnits="objectBoundingBox" id="filter-2">
            <feOffset dx="0" dy="2" in="SourceAlpha" result="shadowOffsetOuter1"></feOffset>
            <feGaussianBlur stdDeviation="6" in="shadowOffsetOuter1" result="shadowBlurOuter1"></feGaussianBlur>
            <feColorMatrix values="0 0 0 0 0.549160289   0 0 0 0 0.549160289   0 0 0 0 0.549160289  0 0 0 0.5 0" type="matrix" in="shadowBlurOuter1"></feColorMatrix>
        </filter>
    </defs>
    <g id="Page-1" stroke="none" stroke-width="1" fill="none" fill-rule="evenodd">
        <g id="Teacher-Default" transform="translate(-45.000000, -97.000000)">
            <g id="Rectangle">
                <use fill="black" fill-opacity="1" filter="url(#filter-2)" xlink:href="#path-1"></use>
                <use fill="#424859" fill-rule="evenodd" xlink:href="#path-1"></use>
            </g>
            <g id="calendar" transform="translate(45.000000, 97.000000)">
                <rect id="Rectangle-15-Copy" x="0" y="0" width="30" height="30"></rect>
                <path d="M19.4344588,9.27287557 C19.8807362,9.27287557 20.2423748,8.91123696 20.2423748,8.46495953 L20.2423748,5.80791604 C20.2423748,5.36194639 19.8807362,5 19.4344588,5 C18.9884891,5 18.6265427,5.36194639 18.6265427,5.80791604 L18.6265427,8.46495953 C18.6265427,8.91123696 18.9884891,9.27287557 19.4344588,9.27287557 Z M10.7452833,9.27287557 C11.191253,9.27287557 11.5531993,8.91123696 11.5531993,8.46495953 L11.5531993,5.80791604 C11.5531993,5.36194639 11.191253,5 10.7452833,5 C10.2990059,5 9.93736727,5.36194639 9.93736727,5.80791604 L9.93736727,8.46495953 C9.93736727,8.91123696 10.2990059,9.27287557 10.7452833,9.27287557 Z M24.1025207,6.97439291 L21.2115663,6.97439291 L21.2115663,8.46495953 C21.2115663,9.44492321 20.4144225,10.2423748 19.4344588,10.2423748 C18.4544951,10.2423748 17.6573513,9.44492321 17.6573513,8.46495953 L17.6573513,6.97439291 L12.5226986,6.97439291 L12.5226986,8.46495953 C12.5226986,9.44492321 11.725247,10.2423748 10.7452833,10.2423748 C9.76531963,10.2423748 8.96786802,9.44492321 8.96786802,8.46495953 L8.96786802,6.97439291 L6.07722138,6.97439291 C5.4822874,6.97439291 5,7.45637253 5,8.05161429 L5,12.468222 L25.1797421,12.468222 L25.1797421,8.05161429 C25.1797421,7.45668031 24.6977625,6.97439291 24.1025207,6.97439291 Z M5,23.9227786 C5,24.5180204 5.4822874,25 6.07722138,25 L24.1025207,25 C24.6977625,25 25.1797421,24.5180204 25.1797421,23.9227786 L25.1797421,13.3299991 L5,13.3299991 L5,23.9227786 Z M19.9130528,15.8885538 L22.6692007,15.8885538 L22.6692007,18.6443938 L19.9130528,18.6443938 L19.9130528,15.8885538 Z M19.9130528,19.8204118 L22.6692007,19.8204118 L22.6692007,22.5762519 L19.9130528,22.5762519 L19.9130528,19.8204118 Z M15.7786772,15.8885538 L18.534825,15.8885538 L18.534825,18.6443938 L15.7786772,18.6443938 L15.7786772,15.8885538 Z M15.7786772,19.8204118 L18.534825,19.8204118 L18.534825,22.5762519 L15.7786772,22.5762519 L15.7786772,19.8204118 Z M11.6449171,15.8885538 L14.4007571,15.8885538 L14.4007571,18.6443938 L11.6449171,18.6443938 L11.6449171,15.8885538 Z M11.6449171,19.8204118 L14.4007571,19.8204118 L14.4007571,22.5762519 L11.6449171,22.5762519 L11.6449171,19.8204118 Z M7.51084916,15.8885538 L10.266997,15.8885538 L10.266997,18.6443938 L7.51084916,18.6443938 L7.51084916,15.8885538 Z M7.51084916,19.8204118 L10.266997,19.8204118 L10.266997,22.5762519 L7.51084916,22.5762519 L7.51084916,19.8204118 Z" id="calendar_icon" fill="#7293FB" fill-rule="nonzero"></path>
            </g>
        </g>
    </g>
</svg>