<?xml version="1.0" encoding="UTF-8"?>
<svg width="30px" height="30px" viewBox="0 0 30 30" version="1.1" xmlns="http://www.w3.org/2000/svg" xmlns:xlink="http://www.w3.org/1999/xlink">
    <!-- Generator: Sketch 45.2 (43514) - http://www.bohemiancoding.com/sketch -->
    <title>competences</title>
    <desc>Created with Sketch.</desc>
    <defs>
        <rect id="path-1" x="0" y="0" width="312" height="660.925781"></rect>
        <filter x="-6.1%" y="-2.6%" width="112.2%" height="105.7%" filterUnits="objectBoundingBox" id="filter-2">
            <feOffset dx="0" dy="2" in="SourceAlpha" result="shadowOffsetOuter1"></feOffset>
            <feGaussianBlur stdDeviation="6" in="shadowOffsetOuter1" result="shadowBlurOuter1"></feGaussianBlur>
            <feColorMatrix values="0 0 0 0 0.549160289   0 0 0 0 0.549160289   0 0 0 0 0.549160289  0 0 0 0.5 0" type="matrix" in="shadowBlurOuter1"></feColorMatrix>
        </filter>
    </defs>
    <g id="Page-1" stroke="none" stroke-width="1" fill="none" fill-rule="evenodd">
        <g id="Teacher-Default" transform="translate(-46.000000, -259.000000)">
            <g id="Rectangle">
                <use fill="black" fill-opacity="1" filter="url(#filter-2)" xlink:href="#path-1"></use>
                <use fill="#424859" fill-rule="evenodd" xlink:href="#path-1"></use>
            </g>
            <g id="competences" transform="translate(46.000000, 259.000000)">
                <rect id="Rectangle-15-Copy-4" x="0" y="0" width="30" height="30"></rect>
                <path d="M20.4217932,5.06390055 C20.1824501,4.92571832 19.8764223,5.00771593 19.7382378,5.24705849 L18.7374429,6.98048751 C18.5992584,7.21983007 18.681258,7.52585809 18.9206011,7.66404282 C19.1599441,7.80222755 19.4659716,7.72022743 19.6041564,7.48088487 L20.6049513,5.74745836 C20.7431358,5.5081158 20.6611362,5.20208528 20.4217932,5.06390055 Z M12.8278596,4.06514244 C12.716942,4.00110408 12.5823619,3.9821115 12.4488671,4.0178674 C12.1819386,4.08939169 12.0255142,4.36032684 12.097025,4.62727633 L12.6150303,6.56046147 C12.6865101,6.82736591 12.9574878,6.98381515 13.2244162,6.91229336 C13.4913667,6.84078157 13.6477907,6.56984642 13.5762584,6.30288442 L13.058275,4.36970929 C13.0225259,4.23622329 12.9387336,4.12915577 12.8278596,4.06514244 L12.8278596,4.06514244 Z M25.0837107,11.1410614 C24.9728364,11.0770481 24.8382362,11.0580355 24.70474,11.0937989 L22.7715704,11.6118002 C22.5046076,11.683332 22.3481831,11.9542672 22.4197282,12.2212092 C22.4912518,12.4881361 22.7622077,12.6445754 23.0291146,12.5730385 L24.9623058,12.0550497 C25.229247,11.9835029 25.385671,11.7125702 25.3141482,11.4456408 C25.278377,11.3121448 25.1946503,11.2051123 25.0837107,11.1410614 L25.0837107,11.1410614 Z M18.1700048,8.9641152 C15.5275682,7.43850372 11.7861016,8.01182149 10.1119846,10.9114766 C8.0634987,14.4595466 10.0468975,16.8078614 9.00408537,19.273044 L13.8251818,22.0565044 C15.4386798,19.9208084 18.4640633,20.46434 20.5125495,16.9162475 C22.1866659,14.0165899 20.8124411,10.4897267 18.1700048,8.9641152 Z M6.75068294,8.72706446 C6.51133988,8.58887973 6.20531236,8.67087985 6.06712713,8.91022491 C5.9289424,9.14956747 6.01094277,9.45559299 6.25028508,9.59378022 L7.98371259,10.5945724 C8.2230559,10.7327572 8.52908317,10.6507596 8.66726865,10.4114145 C8.80545313,10.1720719 8.72345302,9.86604643 8.48411046,9.72785919 L6.75068294,8.72706446 L6.75068294,8.72706446 Z M22.3515263,17.7342471 C22.1121837,17.5960373 21.806159,17.6780274 21.6679717,17.9173925 C21.529791,18.1567075 21.6117866,18.4627506 21.8511292,18.6009603 L23.5845597,19.60173 C23.8239023,19.7399148 24.1299275,19.6579246 24.2681145,19.4185846 C24.4063017,19.1792195 24.3242994,18.8732015 24.0849571,18.7350168 L22.3515263,17.7342471 L22.3515263,17.7342471 Z M8.53077626,20.1553947 L8.03037915,21.0221079 L12.7973056,23.7742684 L13.2977029,22.9075552 L8.53077626,20.1553947 L8.53077626,20.1553947 Z M7.52998203,21.8888212 L7.27978035,22.3221903 C6.99228905,22.8201358 7.1887996,23.4252663 7.64609524,23.689301 L8.29613418,24.064574 L8.0459325,24.4979431 C7.76871186,24.9780994 7.9320916,25.5878336 8.41225389,25.8650287 C8.89240944,26.1422739 9.50214237,25.9788941 9.77936301,25.4987378 L10.0295584,25.0653937 L10.6795974,25.4406667 C11.136893,25.7047014 11.7592155,25.5723213 12.0467065,25.0743508 L12.2969084,24.6409817 L7.52998203,21.8888212 L7.52998203,21.8888212 Z" id="competences_icon" fill="#34D08C" fill-rule="nonzero"></path>
            </g>
        </g>
    </g>
</svg>