<?xml version="1.0" encoding="UTF-8"?>
<svg width="30px" height="30px" viewBox="0 0 30 30" version="1.1" xmlns="http://www.w3.org/2000/svg" xmlns:xlink="http://www.w3.org/1999/xlink">
    <!-- Generator: Sketch 45.2 (43514) - http://www.bohemiancoding.com/sketch -->
    <title>logout</title>
    <desc>Created with Sketch.</desc>
    <defs>
        <rect id="path-1" x="0" y="0" width="312" height="660.925781"></rect>
        <filter x="-6.1%" y="-2.6%" width="112.2%" height="105.7%" filterUnits="objectBoundingBox" id="filter-2">
            <feOffset dx="0" dy="2" in="SourceAlpha" result="shadowOffsetOuter1"></feOffset>
            <feGaussianBlur stdDeviation="6" in="shadowOffsetOuter1" result="shadowBlurOuter1"></feGaussianBlur>
            <feColorMatrix values="0 0 0 0 0.549160289   0 0 0 0 0.549160289   0 0 0 0 0.549160289  0 0 0 0.5 0" type="matrix" in="shadowBlurOuter1"></feColorMatrix>
        </filter>
    </defs>
    <g id="Page-1" stroke="none" stroke-width="1" fill="none" fill-rule="evenodd">
        <g id="Teacher-Default" transform="translate(-44.000000, -573.000000)">
            <g id="Rectangle">
                <use fill="black" fill-opacity="1" filter="url(#filter-2)" xlink:href="#path-1"></use>
                <use fill="#424859" fill-rule="evenodd" xlink:href="#path-1"></use>
            </g>
            <g id="logout" transform="translate(50.000000, 577.000000)" fill-rule="nonzero" fill="#7A8191">
                <path d="M8.04598966,0.0832551724 L17.241392,0.0832551724 C17.6024724,0.083291954 17.9310011,0.411818391 17.9310471,0.772910345 L17.9310471,19.1637241 C17.9310011,19.5248046 17.6024724,19.8533333 17.241392,19.8533793 L8.04598966,19.8533793 C7.68488621,19.8533333 7.35638046,19.5248046 7.35633448,19.1637241 L7.35633448,15.9551494 C7.35127701,15.5908046 7.68159885,15.2556782 8.04598966,15.2556782 C8.41038046,15.2556782 8.74079425,15.5908046 8.73564483,15.9551494 L8.73564483,18.474069 L16.5517368,18.474069 L16.5517368,1.46256552 L8.73564483,1.46256552 L8.73564483,3.98147816 C8.7407023,4.34583218 8.41038046,4.68095632 8.04598966,4.68095632 C7.68159885,4.68095632 7.35118506,4.34583218 7.35633448,3.98147816 L7.35633448,0.772910345 C7.35863333,0.396351724 7.71854138,0.0819241379 8.04598966,0.0832551724 Z" id="Shape"></path>
                <path d="M-1.03448276e-05,9.96710345 C0.00642643678,9.80273563 0.0740816092,9.61275862 0.186771264,9.49294253 L3.86493218,5.58471494 C4.11417356,5.36073793 4.5921046,5.26827816 4.87067931,5.52724368 C5.14507011,5.78230115 5.1369092,6.27696782 4.86355287,6.53303678 L2.27734598,9.27742759 L14.0229805,9.27742759 C14.403854,9.27742759 14.7126356,9.5862069 14.7126356,9.96710345 C14.7126356,10.348 14.403854,10.6567816 14.0229805,10.6567816 L2.27734598,10.6567816 L4.86355287,13.4011724 C5.09888621,13.6369195 5.14238046,14.1489885 4.87067931,14.4069655 C4.59904713,14.6649195 4.10394368,14.5825057 3.86493218,14.3494713 L0.186771264,10.4412644 C0.0609091954,10.3075172 -0.000424137931,10.1505977 -1.03448276e-05,9.96710345 L-1.03448276e-05,9.96710345 Z" id="Shape"></path>
            </g>
        </g>
    </g>
</svg>