<?xml version="1.0" encoding="UTF-8"?>
<svg width="28px" height="24px" viewBox="0 0 28 24" version="1.1" xmlns="http://www.w3.org/2000/svg" xmlns:xlink="http://www.w3.org/1999/xlink">
    <!-- Generator: Sketch 46.2 (44496) - http://www.bohemiancoding.com/sketch -->
    <title>navigation</title>
    <desc>Created with Sketch.</desc>
    <defs></defs>
    <g id="Page-1" stroke="none" stroke-width="1" fill="none" fill-rule="evenodd">
        <g id="Artboard" transform="translate(-79.000000, -600.000000)" fill-rule="nonzero" fill="#63D4FA">
            <g id="navigation" transform="translate(79.000000, 600.000000)">
                <path d="M25.76,23.52 L2.24,23.52 C1.2992,23.52 0.56,22.7024516 0.56,21.6619355 L0.56,20.1754839 C0.56,19.1349677 1.2992,18.3174194 2.24,18.3174194 L25.76,18.3174194 C26.7008,18.3174194 27.44,19.1349677 27.44,20.1754839 L27.44,21.6619355 C27.44,22.7024516 26.7008,23.52 25.76,23.52 Z M25.76,14.6012903 L2.24,14.6012903 C1.2992,14.6012903 0.56,13.7837419 0.56,12.7432258 L0.56,11.2567742 C0.56,10.2162581 1.2992,9.39870968 2.24,9.39870968 L25.76,9.39870968 C26.7008,9.39870968 27.44,10.2162581 27.44,11.2567742 L27.44,12.7432258 C27.44,13.7837419 26.7008,14.6012903 25.76,14.6012903 Z M25.76,5.68258065 L2.24,5.68258065 C1.2992,5.68258065 0.56,4.86503226 0.56,3.82451613 L0.56,2.33806452 C0.56,1.29754839 1.2992,0.48 2.24,0.48 L25.76,0.48 C26.7008,0.48 27.44,1.29754839 27.44,2.33806452 L27.44,3.82451613 C27.44,4.86503226 26.7008,5.68258065 25.76,5.68258065 Z" id="Shape"></path>
            </g>
        </g>
    </g>
</svg>