<?xml version="1.0" encoding="UTF-8"?>
<svg width="30px" height="30px" viewBox="0 0 30 30" version="1.1" xmlns="http://www.w3.org/2000/svg" xmlns:xlink="http://www.w3.org/1999/xlink">
    <!-- Generator: Sketch 45.2 (43514) - http://www.bohemiancoding.com/sketch -->
    <title>register</title>
    <desc>Created with Sketch.</desc>
    <defs>
        <rect id="path-1" x="0" y="0" width="312" height="660.925781"></rect>
        <filter x="-6.1%" y="-2.6%" width="112.2%" height="105.7%" filterUnits="objectBoundingBox" id="filter-2">
            <feOffset dx="0" dy="2" in="SourceAlpha" result="shadowOffsetOuter1"></feOffset>
            <feGaussianBlur stdDeviation="6" in="shadowOffsetOuter1" result="shadowBlurOuter1"></feGaussianBlur>
            <feColorMatrix values="0 0 0 0 0.549160289   0 0 0 0 0.549160289   0 0 0 0 0.549160289  0 0 0 0.5 0" type="matrix" in="shadowBlurOuter1"></feColorMatrix>
        </filter>
    </defs>
    <g id="Page-1" stroke="none" stroke-width="1" fill="none" fill-rule="evenodd">
        <g id="Teacher-Default" transform="translate(-45.000000, -148.000000)">
            <g id="Rectangle">
                <use fill="black" fill-opacity="1" filter="url(#filter-2)" xlink:href="#path-1"></use>
                <use fill="#424859" fill-rule="evenodd" xlink:href="#path-1"></use>
            </g>
            <g id="register" transform="translate(45.000000, 149.000000)">
                <rect id="Rectangle-15-Copy-2" x="0" y="0" width="30" height="30"></rect>
                <g id="register_Icon" transform="translate(6.000000, 5.000000)" fill-rule="nonzero" fill="#F8A3ED">
                    <path d="M1.78179639,17.0568889 L1.78179639,0 L1.07766113,0 C0.56846306,0 0.153719099,0.366666667 0.153719099,0.818 L0.153719099,17.3473333 C0.487322964,17.1633333 0.880714268,17.0571111 1.30198963,17.0571111 L1.78179639,17.0571111 L1.78179639,17.0568889 Z" id="Shape"></path>
                    <path d="M15.8049655,18 L1.30198963,18 C0.668443737,18 0.153719099,18.4553333 0.153719099,19.0157778 C0.153719099,19.5762222 0.668443737,20.0322222 1.30198963,20.0322222 L15.9436321,20.0322222 C15.6369075,19.6862222 15.4610621,19.2842222 15.4673423,18.8797778 C15.470608,18.6831111 15.5248689,18.3428889 15.8049655,18 Z" id="Shape"></path>
                    <path d="M16.5021442,0 L3.1537191,0 L3.1537191,17.0568889 L16.1695452,17.0568889 C16.8638834,17.0568889 17.4265887,16.5588889 17.4265887,15.9448889 L17.4265887,0.818 C17.4268399,0.366222222 17.0128495,0 16.5021442,0 Z" id="Shape"></path>
                </g>
            </g>
        </g>
    </g>
</svg>