<?xml version="1.0" encoding="UTF-8"?>
<svg width="30px" height="30px" viewBox="0 0 30 30" version="1.1" xmlns="http://www.w3.org/2000/svg" xmlns:xlink="http://www.w3.org/1999/xlink">
    <!-- Generator: Sketch 45.2 (43514) - http://www.bohemiancoding.com/sketch -->
    <title>switch</title>
    <desc>Created with Sketch.</desc>
    <defs>
        <rect id="path-1" x="0" y="0" width="312" height="660.925781"></rect>
        <filter x="-6.1%" y="-2.6%" width="112.2%" height="105.7%" filterUnits="objectBoundingBox" id="filter-2">
            <feOffset dx="0" dy="2" in="SourceAlpha" result="shadowOffsetOuter1"></feOffset>
            <feGaussianBlur stdDeviation="6" in="shadowOffsetOuter1" result="shadowBlurOuter1"></feGaussianBlur>
            <feColorMatrix values="0 0 0 0 0.549160289   0 0 0 0 0.549160289   0 0 0 0 0.549160289  0 0 0 0.5 0" type="matrix" in="shadowBlurOuter1"></feColorMatrix>
        </filter>
    </defs>
    <g id="Page-1" stroke="none" stroke-width="1" fill="none" fill-rule="evenodd">
        <g id="Teacher-Default" transform="translate(-46.000000, -319.000000)">
            <g id="Rectangle">
                <use fill="black" fill-opacity="1" filter="url(#filter-2)" xlink:href="#path-1"></use>
                <use fill="#424859" fill-rule="evenodd" xlink:href="#path-1"></use>
            </g>
            <g id="switch" transform="translate(46.000000, 319.000000)">
                <rect id="Rectangle-15-Copy-5" x="0" y="0" width="30" height="30"></rect>
                <g id="switch_icon" transform="translate(4.000000, 4.000000)" fill-rule="nonzero" fill="#934EAE">
                    <g id="Group">
                        <g id="Shape">
                            <path d="M6.16,10.55956 L3.52,10.55956 C3.03336,10.55956 2.64,10.16532 2.64,9.67956 C2.64,9.1938 3.03336,8.79956 3.52,8.79956 L6.16,8.79956 C6.64664,8.79956 7.04,9.1938 7.04,9.67956 C7.04,10.16532 6.64664,10.55956 6.16,10.55956 M5.28,13.19956 L3.52,13.19956 C3.03336,13.19956 2.64,12.80532 2.64,12.31956 C2.64,11.8338 3.03336,11.43956 3.52,11.43956 L5.28,11.43956 C5.76664,11.43956 6.16,11.8338 6.16,12.31956 C6.16,12.80532 5.76664,13.19956 5.28,13.19956 M9.68,14.95956 L9.68,7.03956 C9.68,6.5538 9.28664,6.15956 8.8,6.15956 L0.88,6.15956 C0.39336,6.15956 0,6.5538 0,7.03956 L0,14.95956 C0,15.44532 0.39336,15.83956 0.88,15.83956 L8.8,15.83956 C9.28664,15.83956 9.68,15.44532 9.68,14.95956"></path>
                            <path d="M5.891864,5.032104 C7.582344,3.396184 11.393624,3.099624 13.836504,4.139784 L13.568104,4.229544 C13.106984,4.383544 12.857944,4.881624 13.011944,5.342744 C13.134264,5.711464 13.477464,5.944664 13.846184,5.944664 C13.938584,5.944664 14.031864,5.929704 14.124264,5.898904 L16.118344,5.234504 C16.128024,5.230984 16.135064,5.223064 16.144744,5.219544 C16.196664,5.200184 16.240664,5.165864 16.289064,5.135944 C16.342744,5.103384 16.398184,5.075224 16.442184,5.032984 C16.450104,5.025944 16.459784,5.023304 16.467704,5.016264 C16.497624,4.985464 16.509944,4.946744 16.534584,4.912424 C16.572424,4.861384 16.611144,4.813864 16.637544,4.755784 C16.661304,4.702984 16.670104,4.647544 16.682424,4.592104 C16.694744,4.537544 16.710584,4.486504 16.712344,4.431064 C16.714984,4.365944 16.700904,4.304344 16.689464,4.240104 C16.681544,4.200504 16.687704,4.160904 16.674504,4.121304 L15.794504,1.481304 C15.640504,1.020184 15.147704,0.770264 14.681304,0.925144 C14.221064,1.078264 13.972024,1.577224 14.125144,2.038344 L14.250984,2.413224 C11.163944,1.218184 6.842264,1.663464 4.667784,3.767544 C4.319304,4.104584 4.309624,4.662504 4.647544,5.011864 C4.986344,5.360344 5.542504,5.370904 5.891864,5.032104"></path>
                            <path d="M15.228136,17.847104 C13.537656,19.483024 9.726376,19.779584 7.283496,18.739424 L8.198696,18.434064 C8.658936,18.280944 8.907976,17.781984 8.754856,17.320864 C8.600856,16.860624 8.106296,16.609824 7.641656,16.764704 L5.001656,17.644704 C4.991096,17.648224 4.984936,17.656144 4.975256,17.659664 C4.919816,17.679904 4.873176,17.715984 4.822136,17.747664 C4.771976,17.779344 4.720056,17.805744 4.677816,17.846224 C4.669896,17.853264 4.660216,17.855024 4.652296,17.862944 C4.622376,17.893744 4.610056,17.932464 4.585416,17.966784 C4.547576,18.017824 4.508856,18.065344 4.482456,18.123424 C4.458696,18.176224 4.449896,18.231664 4.437576,18.287104 C4.425256,18.340784 4.409416,18.391824 4.407656,18.448144 C4.405016,18.513264 4.419096,18.574864 4.430536,18.639104 C4.438456,18.678704 4.432296,18.718304 4.445496,18.757904 L5.325496,21.397904 C5.448696,21.766624 5.791016,21.999824 6.159736,21.999824 C6.252136,21.999824 6.345416,21.985744 6.438696,21.954064 C6.898936,21.800944 7.147976,21.301984 6.994856,20.840864 L6.869016,20.465984 C7.988376,20.898944 9.264376,21.123344 10.547416,21.123344 C12.803736,21.123344 15.065336,20.452784 16.452216,19.111664 C16.800696,18.774624 16.810376,18.216704 16.472456,17.867344 C16.134536,17.518864 15.578376,17.509184 15.228136,17.847104"></path>
                            <path d="M17.6,10.55956 L14.96,10.55956 C14.47336,10.55956 14.08,10.16532 14.08,9.67956 C14.08,9.1938 14.47336,8.79956 14.96,8.79956 L17.6,8.79956 C18.08664,8.79956 18.48,9.1938 18.48,9.67956 C18.48,10.16532 18.08664,10.55956 17.6,10.55956 M16.72,13.19956 L14.96,13.19956 C14.47336,13.19956 14.08,12.80532 14.08,12.31956 C14.08,11.8338 14.47336,11.43956 14.96,11.43956 L16.72,11.43956 C17.20664,11.43956 17.6,11.8338 17.6,12.31956 C17.6,12.80532 17.20664,13.19956 16.72,13.19956 M20.24,6.15956 L12.32,6.15956 C11.83336,6.15956 11.44,6.5538 11.44,7.03956 L11.44,14.95956 C11.44,15.44532 11.83336,15.83956 12.32,15.83956 L20.24,15.83956 C20.72664,15.83956 21.12,15.44532 21.12,14.95956 L21.12,7.03956 C21.12,6.5538 20.72664,6.15956 20.24,6.15956"></path>
                        </g>
                    </g>
                </g>
            </g>
        </g>
    </g>
</svg>