<?xml version="1.0" encoding="UTF-8"?>
<svg width="30px" height="30px" viewBox="0 0 30 30" version="1.1" xmlns="http://www.w3.org/2000/svg" xmlns:xlink="http://www.w3.org/1999/xlink">
    <!-- Generator: Sketch 45.2 (43514) - http://www.bohemiancoding.com/sketch -->
    <title>todo</title>
    <desc>Created with Sketch.</desc>
    <defs>
        <rect id="path-1" x="0" y="0" width="312" height="660.925781"></rect>
        <filter x="-6.1%" y="-2.6%" width="112.2%" height="105.7%" filterUnits="objectBoundingBox" id="filter-2">
            <feOffset dx="0" dy="2" in="SourceAlpha" result="shadowOffsetOuter1"></feOffset>
            <feGaussianBlur stdDeviation="6" in="shadowOffsetOuter1" result="shadowBlurOuter1"></feGaussianBlur>
            <feColorMatrix values="0 0 0 0 0.549160289   0 0 0 0 0.549160289   0 0 0 0 0.549160289  0 0 0 0.5 0" type="matrix" in="shadowBlurOuter1"></feColorMatrix>
        </filter>
    </defs>
    <g id="Page-1" stroke="none" stroke-width="1" fill="none" fill-rule="evenodd">
        <g id="Teacher-Default" transform="translate(-45.000000, -45.000000)">
            <g id="Rectangle">
                <use fill="black" fill-opacity="1" filter="url(#filter-2)" xlink:href="#path-1"></use>
                <use fill="#424859" fill-rule="evenodd" xlink:href="#path-1"></use>
            </g>
            <g id="todo" transform="translate(44.000000, 45.000000)">
                <rect id="Rectangle-15" x="0" y="0" width="30" height="30"></rect>
                <g id="todo_icon" transform="translate(6.000000, 2.000000)" fill-rule="nonzero" fill="#60D4FA">
                    <g id="Group" transform="translate(0.066467, 0.000000)">
                        <path d="M5.23894982,5.9368561 L13.7347956,5.9368561 C13.9953473,5.9368561 14.2093719,5.72748421 14.2093719,5.46227983 L14.2093719,2.83815221 C14.2093719,2.57760053 14,2.36357594 13.7347956,2.36357594 L11.8597541,2.36357594 L11.8597541,2.36357594 C11.8551014,1.05616484 10.7989365,0 9.49152542,0 C8.18411432,0 7.12794948,1.05616484 7.12794948,2.36357594 L7.12794948,2.36357594 L5.23894982,2.36357594 C4.97839814,2.36357594 4.76437355,2.57294782 4.76437355,2.83815221 L4.76437355,5.46693254 C4.76437355,5.72748421 4.97374543,5.9368561 5.23894982,5.9368561 Z" id="Shape"></path>
                        <path d="M17.7640412,4.72715188 L16.5682951,4.72715188 L16.5682951,7.82585577 C16.5682951,8.08640744 16.3589232,8.30043204 16.0937188,8.30043204 L2.87537388,8.30043204 C2.6148222,8.30043204 2.40079761,8.09106015 2.40079761,7.82585577 L2.40079761,4.72715188 L1.21900964,4.72715188 C0.567630442,4.72715188 0.0372216683,5.25756065 0.0372216683,5.90893985 L0.0372216683,22.4539714 C0.0372216683,23.1053506 0.567630442,23.6357594 1.21900964,23.6357594 L17.7640412,23.6357594 C18.4154204,23.6357594 18.9458292,23.1053506 18.9458292,22.4539714 L18.9458292,5.90893985 C18.9458292,5.25756065 18.4154204,4.72715188 17.7640412,4.72715188 Z M13.8743769,13.8371552 L7.96543702,19.746095 C7.7328016,19.9787305 7.43037554,20.0903955 7.12794948,20.0903955 C6.82552343,20.0903955 6.52309737,19.9740778 6.29046195,19.746095 L3.92688601,17.3825191 C3.46626786,16.921901 3.46626786,16.1728149 3.92688601,15.7121967 C4.38750415,15.2515786 5.13659023,15.2515786 5.59720837,15.7121967 L7.12329678,17.2382851 L12.1947491,12.1668328 C12.6553672,11.7062147 13.4044533,11.7062147 13.8650715,12.1668328 C14.334995,12.627451 14.334995,13.3718843 13.8743769,13.8371552 Z" id="Shape"></path>
                    </g>
                </g>
            </g>
        </g>
    </g>
</svg>