<?xml version="1.0" encoding="UTF-8" standalone="no"?>
<svg
   width="24px"
   height="24px"
   viewBox="0 0 24 24"
   data-name="025_SCIENCE"
   id="_025_SCIENCE"
   version="1.1"
   sodipodi:docname="absences.svg"
   inkscape:version="1.1.2 (b8e25be8, 2022-02-05)"
   xmlns:inkscape="http://www.inkscape.org/namespaces/inkscape"
   xmlns:sodipodi="http://sodipodi.sourceforge.net/DTD/sodipodi-0.dtd"
   xmlns="http://www.w3.org/2000/svg"
   xmlns:svg="http://www.w3.org/2000/svg">
  <sodipodi:namedview
     id="namedview21"
     pagecolor="#ffffff"
     bordercolor="#999999"
     borderopacity="1"
     inkscape:pageshadow="0"
     inkscape:pageopacity="0"
     inkscape:pagecheckerboard="0"
     showgrid="true"
     inkscape:zoom="8"
     inkscape:cx="22.4375"
     inkscape:cy="-0.75"
     inkscape:window-width="1296"
     inkscape:window-height="916"
     inkscape:window-x="1993"
     inkscape:window-y="108"
     inkscape:window-maximized="0"
     inkscape:current-layer="_025_SCIENCE"
     guidetolerance="10000"
     inkscape:snap-perpendicular="true"
     inkscape:snap-tangential="true"
     inkscape:snap-path-clip="true"
     inkscape:snap-path-mask="true"
     objecttolerance="10000"
     inkscape:snap-bbox="true"
     inkscape:bbox-paths="false"
     inkscape:object-paths="true"
     inkscape:snap-intersection-paths="true"
     inkscape:snap-smooth-nodes="true"
     inkscape:snap-midpoints="true"
     inkscape:snap-object-midpoints="true"
     inkscape:snap-center="true"
     inkscape:snap-text-baseline="true"
     inkscape:snap-page="true"
     inkscape:object-nodes="true"
     inkscape:snap-others="true"
     inkscape:snap-nodes="true">
    <inkscape:grid
       type="xygrid"
       id="grid984"
       snapvisiblegridlinesonly="true"
       dotted="false"
       spacingx="0.5"
       spacingy="0.5" />
  </sodipodi:namedview>
  <defs
     id="defs4">
    <style
       id="style2">.cls-1{fill:#333;}</style>
  </defs>
  <path
     id="path6"
     style="fill:#80c0f9;fill-opacity:1"
     class="cls-1"
     d="M 5,4 C 4.4477153,4 4,4.4477153 4,5 v 16 c 0,0.552285 0.4477153,1 1,1 h 15 c 0.5,0 1,-0.5 1,-1 V 5 C 21,4.4477153 20.552285,4 20,4 Z M 6,6 H 19 V 20 H 6 Z"
     sodipodi:nodetypes="ssssccsssccccc" />
  <path
     class="cls-1"
     d="m 9.4999999,10 h -1 c -1.3333328,0 -1.3333328,-2 0,-2 h 1 c 1.3333331,0 1.3333331,2 0,2 z"
     id="path8-1"
     style="fill:#80c0f9;fill-opacity:1"
     sodipodi:nodetypes="sssss" />
  <path
     class="cls-1"
     d="m 9.5,16 h -1 c -1.3333328,0 -1.3333328,-2 0,-2 h 1 c 1.333333,0 1.333333,2 0,2 z"
     id="path8-1-4"
     style="fill:#80c0f9;fill-opacity:1"
     sodipodi:nodetypes="sssss" />
  <path
     class="cls-1"
     d="m 15.853553,14.232233 -2.12132,2.12132 c -0.942809,0.942809 0.471405,2.357023 1.414214,1.414214 l 2.12132,-2.12132 c 0.942809,-0.942809 -0.471405,-2.357023 -1.414214,-1.414214 z"
     id="path8-1-4-3"
     style="fill:#80c0f9;fill-opacity:1"
     sodipodi:nodetypes="sssss" />
  <path
     class="cls-1"
     d="m 13.627592,17.830536 -1.414214,-1.414213 c -0.942808,-0.942809 0.471405,-2.357022 1.414214,-1.414214 l 1.414214,1.414214 c 0.119843,0.119843 0.201599,0.247307 0.251087,0.37657 0.339809,0.887685 -0.842335,1.860609 -1.665301,1.037643 z"
     id="path8-1-4-4"
     style="fill:#80c0f9;fill-opacity:1"
     sodipodi:nodetypes="ssssss" />
  <path
     class="cls-1"
     d="M 15.414213,12.328427 12.585786,9.4999995 c -0.942809,-0.942809 0.471404,-2.357022 1.414213,-1.414213 l 2.828427,2.8284275 c 0.942809,0.942809 -0.471404,2.357022 -1.414213,1.414213 z"
     id="path8-1-4-7"
     style="fill:#80c0f9;fill-opacity:1"
     sodipodi:nodetypes="sssss" />
  <path
     class="cls-1"
     d="m 13.999999,12.328427 2.828427,-2.8284275 c 0.942809,-0.942809 -0.471404,-2.357022 -1.414213,-1.414213 l -2.828427,2.8284275 c -0.942809,0.942809 0.471404,2.357022 1.414213,1.414213 z"
     id="path8-1-4-7-2"
     style="fill:#80c0f9;fill-opacity:1"
     sodipodi:nodetypes="sssss" />
  <path
     class="cls-1"
     d="m 11.5,3 h 2 c 1.333333,0 1.333333,2 0,2 h -2 c -1.333333,0 -1.333333,-2 0,-2 z"
     id="path10-9"
     style="fill:#80c0f9;fill-opacity:1"
     sodipodi:nodetypes="sssss" />
</svg>
