<?xml version="1.0" encoding="UTF-8" standalone="no"?>
<svg
   width="24px"
   height="24px"
   viewBox="0 0 24 24"
   data-name="025_SCIENCE"
   id="_025_SCIENCE"
   version="1.1"
   sodipodi:docname="calendar.svg"
   inkscape:version="1.1.2 (b8e25be8, 2022-02-05)"
   xmlns:inkscape="http://www.inkscape.org/namespaces/inkscape"
   xmlns:sodipodi="http://sodipodi.sourceforge.net/DTD/sodipodi-0.dtd"
   xmlns="http://www.w3.org/2000/svg"
   xmlns:svg="http://www.w3.org/2000/svg">
  <sodipodi:namedview
     id="namedview21"
     pagecolor="#ffffff"
     bordercolor="#999999"
     borderopacity="1"
     inkscape:pageshadow="0"
     inkscape:pageopacity="0"
     inkscape:pagecheckerboard="0"
     showgrid="true"
     inkscape:zoom="32"
     inkscape:cx="9.046875"
     inkscape:cy="12.828125"
     inkscape:window-width="1920"
     inkscape:window-height="1027"
     inkscape:window-x="-2"
     inkscape:window-y="25"
     inkscape:window-maximized="0"
     inkscape:current-layer="_025_SCIENCE"
     guidetolerance="10000"
     inkscape:snap-perpendicular="true"
     inkscape:snap-tangential="true"
     inkscape:snap-path-clip="true"
     inkscape:snap-path-mask="true"
     objecttolerance="10000"
     inkscape:snap-bbox="true"
     inkscape:bbox-paths="false"
     inkscape:object-paths="true"
     inkscape:snap-intersection-paths="true"
     inkscape:snap-smooth-nodes="true"
     inkscape:snap-midpoints="true"
     inkscape:snap-object-midpoints="true"
     inkscape:snap-center="true"
     inkscape:snap-text-baseline="true"
     inkscape:snap-page="true"
     inkscape:object-nodes="true"
     inkscape:snap-others="true"
     inkscape:snap-nodes="true">
    <inkscape:grid
       type="xygrid"
       id="grid984"
       snapvisiblegridlinesonly="true"
       dotted="false"
       spacingx="0.5"
       spacingy="0.5" />
  </sodipodi:namedview>
  <defs
     id="defs4">
    <style
       id="style2">.cls-1{fill:#333;}</style>
  </defs>
  <path
     id="path6"
     style="fill:#80c0f9;fill-opacity:1"
     class="cls-1"
     d="M 5,4 C 4.4477153,4 4,4.4477153 4,5 v 16 c 0,0.552285 0.4477153,1 1,1 h 15 c 0.5,0 1,-0.5 1,-1 V 5 C 21,4.4477153 20.552285,4 20,4 Z M 6,6 H 19 V 20 H 6 Z"
     sodipodi:nodetypes="ssssccsssccccc" />
  <path
     class="cls-1"
     d="M 19,10 H 6 C 4.6666672,10 4.6666672,8 6,8 h 13 c 1.333333,0 1.333333,2 0,2 z"
     id="path8-1"
     style="fill:#80c0f9;fill-opacity:1"
     sodipodi:nodetypes="sssss" />
  <path
     class="cls-1"
     d="M 11,14 H 8.4999999 c -1.3333328,0 -1.3333328,-2 0,-2 H 11 c 1.333333,0 1.333333,2 0,2 z"
     id="path8-1-4"
     style="fill:#80c0f9;fill-opacity:1"
     sodipodi:nodetypes="sssss" />
  <path
     class="cls-1"
     d="M 16.5,14 H 14 c -1.333333,0 -1.333333,-2 0,-2 h 2.5 c 1.333333,0 1.333333,2 0,2 z"
     id="path8-1-4-8"
     style="fill:#80c0f9;fill-opacity:1"
     sodipodi:nodetypes="sssss" />
  <path
     class="cls-1"
     d="M 11,18 H 8.5 c -1.333333,0 -1.333333,-2 0,-2 H 11 c 1.333333,0 1.333333,2 0,2 z"
     id="path8-1-4-4"
     style="fill:#80c0f9;fill-opacity:1"
     sodipodi:nodetypes="sssss" />
  <path
     class="cls-1"
     d="M 16.5,18 H 14 c -1.333333,0 -1.333333,-2 0,-2 h 2.5 c 1.333333,0 1.333333,2 0,2 z"
     id="path8-1-4-8-0"
     style="fill:#80c0f9;fill-opacity:1"
     sodipodi:nodetypes="sssss" />
  <path
     class="cls-1"
     d="M 8,4.9999999 V 3 c 0,-1.3333329 2,-1.3333329 2,0 v 1.9999999 c 0,1.333333 -2,1.333333 -2,0 z"
     id="path10"
     style="fill:#80c0f9;fill-opacity:1"
     sodipodi:nodetypes="sssss" />
  <path
     class="cls-1"
     d="m 15,4.9999999 v -2 c 0,-1.3333328 2,-1.3333328 2,0 v 2 c 0,1.333333 -2,1.333333 -2,0 z"
     id="path10-9"
     style="fill:#80c0f9;fill-opacity:1"
     sodipodi:nodetypes="sssss" />
</svg>
