<?xml version="1.0" encoding="UTF-8" standalone="no"?>
<svg
   width="24px"
   height="24px"
   viewBox="0 0 24 24"
   data-name="025_SCIENCE"
   id="_025_SCIENCE"
   version="1.1"
   sodipodi:docname="certificate.svg"
   inkscape:version="1.1.2 (b8e25be8, 2022-02-05)"
   xmlns:inkscape="http://www.inkscape.org/namespaces/inkscape"
   xmlns:sodipodi="http://sodipodi.sourceforge.net/DTD/sodipodi-0.dtd"
   xmlns="http://www.w3.org/2000/svg"
   xmlns:svg="http://www.w3.org/2000/svg">
  <sodipodi:namedview
     id="namedview21"
     pagecolor="#ffffff"
     bordercolor="#999999"
     borderopacity="1"
     inkscape:pageshadow="0"
     inkscape:pageopacity="0"
     inkscape:pagecheckerboard="0"
     showgrid="true"
     inkscape:zoom="10.609371"
     inkscape:cx="4.9484556"
     inkscape:cy="-9.6612704"
     inkscape:window-width="1920"
     inkscape:window-height="1027"
     inkscape:window-x="0"
     inkscape:window-y="25"
     inkscape:window-maximized="0"
     inkscape:current-layer="_025_SCIENCE"
     inkscape:snap-bbox="true"
     inkscape:bbox-paths="true"
     inkscape:bbox-nodes="true"
     inkscape:snap-bbox-edge-midpoints="true"
     inkscape:snap-bbox-midpoints="true"
     inkscape:snap-intersection-paths="true"
     inkscape:object-paths="true"
     inkscape:snap-smooth-nodes="true"
     inkscape:snap-midpoints="true">
    <inkscape:grid
       type="xygrid"
       id="grid896" />
  </sodipodi:namedview>
  <defs
     id="defs4">
    <style
       id="style2">.cls-1{fill:#333;}</style>
  </defs>
  <path
     class="cls-1"
     d="M 17,22 H 5 C 4.4477153,22 4,21.552285 4,21 V 3 C 4,2.4477153 4.4477153,2 5,2 h 12 c 0.552285,0 1,0.4477153 1,1 V 20.861568 21 c 0,1.333333 -2,1.333333 -2,0 V 4 H 6 v 16 h 11 c 1.333333,0 1.333333,2 0,2 z"
     id="path6"
     style="fill:#80c0f9;fill-opacity:1"
     sodipodi:nodetypes="ssssssscsscccss" />
  <path
     class="cls-1"
     d="M 13,16 H 9 a 1,1 0 0 1 0,-2 h 4 a 1,1 0 0 1 0,2 z"
     id="path12"
     style="fill:#80c0f9;fill-opacity:1" />
  <path
     class="cls-1"
     d="M 19,21 V 3 c 0,-1.3333328 2,-1.3333328 2,0 v 18 c 0,1.333333 -2,1.333333 -2,0 z"
     id="path12-7"
     style="fill:#80c0f9;fill-opacity:1"
     sodipodi:nodetypes="sssss" />
  <path
     class="cls-1"
     d="M 13,8 H 9 A 1,1 0 0 1 9,6 h 4 a 1,1 0 0 1 0,2 z"
     id="path16"
     style="fill:#80c0f9;fill-opacity:1" />
  <path
     class="cls-1"
     d="M 13,12 H 9 a 1,1 0 0 1 0,-2 h 4 a 1,1 0 0 1 0,2 z"
     id="path18"
     style="fill:#80c0f9;fill-opacity:1" />
</svg>
