<?xml version="1.0" encoding="UTF-8" standalone="no"?>
<svg
   width="24px"
   height="24px"
   viewBox="0 0 24 24"
   data-name="025_SCIENCE"
   id="_025_SCIENCE"
   version="1.1"
   sodipodi:docname="course.svg"
   inkscape:version="1.1.2 (b8e25be8, 2022-02-05)"
   xmlns:inkscape="http://www.inkscape.org/namespaces/inkscape"
   xmlns:sodipodi="http://sodipodi.sourceforge.net/DTD/sodipodi-0.dtd"
   xmlns="http://www.w3.org/2000/svg"
   xmlns:svg="http://www.w3.org/2000/svg">
  <sodipodi:namedview
     id="namedview21"
     pagecolor="#ffffff"
     bordercolor="#999999"
     borderopacity="1"
     inkscape:pageshadow="0"
     inkscape:pageopacity="0"
     inkscape:pagecheckerboard="0"
     showgrid="true"
     inkscape:zoom="32"
     inkscape:cx="8.015625"
     inkscape:cy="9.421875"
     inkscape:window-width="1920"
     inkscape:window-height="1027"
     inkscape:window-x="0"
     inkscape:window-y="25"
     inkscape:window-maximized="1"
     inkscape:current-layer="_025_SCIENCE"
     guidetolerance="10000"
     inkscape:snap-perpendicular="true"
     inkscape:snap-tangential="true"
     inkscape:snap-path-clip="true"
     inkscape:snap-path-mask="true"
     objecttolerance="10000"
     inkscape:snap-bbox="true"
     inkscape:bbox-paths="false"
     inkscape:object-paths="true"
     inkscape:snap-intersection-paths="true"
     inkscape:snap-smooth-nodes="true"
     inkscape:snap-midpoints="true"
     inkscape:snap-object-midpoints="true"
     inkscape:snap-center="true"
     inkscape:snap-text-baseline="true"
     inkscape:snap-page="true"
     inkscape:object-nodes="true"
     inkscape:snap-others="true"
     inkscape:snap-nodes="true">
    <inkscape:grid
       type="xygrid"
       id="grid984"
       snapvisiblegridlinesonly="true"
       dotted="false"
       spacingx="0.5"
       spacingy="0.5" />
  </sodipodi:namedview>
  <defs
     id="defs4">
    <style
       id="style2">.cls-1{fill:#333;}</style>
  </defs>
  <path
     class="cls-1"
     d="M 20,11 H 14.84375 13 c -1.333333,0 -1.333333,-2 0,-2 h 7 c 1.333333,0 1.333333,2 0,2 z"
     id="path8-1"
     style="fill:#80c0f9;fill-opacity:1"
     sodipodi:nodetypes="scssss" />
  <path
     class="cls-1"
     d="M 12,10 V 8.09375 3 c 0,-1.333333 2,-1.333333 2,0 V 7.515625 10 c 0,1.333333 -2,1.333333 -2,0 z"
     id="path8-1-4"
     style="fill:#80c0f9;fill-opacity:1"
     sodipodi:nodetypes="scsscss" />
  <path
     class="cls-1"
     d="M 20,22 H 5 C 4.4477153,22 4,21.552285 4,21 V 3 C 4,2.4477153 4.4477153,2 5,2 h 7.5 1.5 l 7,7 v 12 c 0,0.5 -2,0.5 -2,0 V 10 C 18.5,9.5 13.5,4.5 13,4 H 6 v 16 h 14 c 0.505618,0 1.005681,0.494446 1,1 -0.0056,0.49432 -0.505618,1 -1,1 z"
     id="path6-0"
     style="fill:#80c0f9;fill-opacity:1"
     sodipodi:nodetypes="sssssccccsccccsss" />
</svg>
