<?xml version="1.0" encoding="UTF-8" standalone="no"?>
<svg
   width="24px"
   height="24px"
   viewBox="0 0 24 24"
   data-name="025_SCIENCE"
   id="_025_SCIENCE"
   version="1.1"
   sodipodi:docname="dashboard.svg"
   inkscape:version="1.1.2 (b8e25be8, 2022-02-05)"
   xmlns:inkscape="http://www.inkscape.org/namespaces/inkscape"
   xmlns:sodipodi="http://sodipodi.sourceforge.net/DTD/sodipodi-0.dtd"
   xmlns="http://www.w3.org/2000/svg"
   xmlns:svg="http://www.w3.org/2000/svg">
  <sodipodi:namedview
     id="namedview21"
     pagecolor="#ffffff"
     bordercolor="#999999"
     borderopacity="1"
     inkscape:pageshadow="0"
     inkscape:pageopacity="0"
     inkscape:pagecheckerboard="0"
     showgrid="false"
     inkscape:zoom="15.003916"
     inkscape:cx="12.163491"
     inkscape:cy="16.195772"
     inkscape:window-width="1296"
     inkscape:window-height="916"
     inkscape:window-x="0"
     inkscape:window-y="38"
     inkscape:window-maximized="0"
     inkscape:current-layer="_025_SCIENCE" />
  <defs
     id="defs4">
    <style
       id="style2">.cls-1{fill:#333;}</style>
  </defs>
  <path
     class="cls-1"
     d="M20,22H5a1,1,0,0,1-1-1V3A1,1,0,0,1,5,2H20a1,1,0,0,1,1,1V18a1,1,0,0,1-2,0V4H6V20H20a1,1,0,0,1,0,2Z"
     id="path6"
     style="fill:#80c0f9;fill-opacity:1" />
  <path
     class="cls-1"
     d="M7,7H3A1,1,0,0,1,3,5H7A1,1,0,0,1,7,7Z"
     id="path8"
     style="fill:#80c0f9;fill-opacity:1" />
  <path
     class="cls-1"
     d="M7,11H3A1,1,0,0,1,3,9H7a1,1,0,0,1,0,2Z"
     id="path10"
     style="fill:#80c0f9;fill-opacity:1" />
  <path
     class="cls-1"
     d="M7,15H3a1,1,0,0,1,0-2H7a1,1,0,0,1,0,2Z"
     id="path12"
     style="fill:#80c0f9;fill-opacity:1" />
  <path
     class="cls-1"
     d="M7,19H3a1,1,0,0,1,0-2H7a1,1,0,0,1,0,2Z"
     id="path14"
     style="fill:#80c0f9;fill-opacity:1" />
  <path
     class="cls-1"
     d="M15,11H11a1,1,0,0,1,0-2h4a1,1,0,0,1,0,2Z"
     id="path16"
     style="fill:#80c0f9;fill-opacity:1" />
  <path
     class="cls-1"
     d="M15,15H11a1,1,0,0,1,0-2h4a1,1,0,0,1,0,2Z"
     id="path18"
     style="fill:#80c0f9;fill-opacity:1" />
</svg>
