<?xml version="1.0" encoding="UTF-8" standalone="no"?>
<svg
   width="24px"
   height="24px"
   viewBox="0 0 24 24"
   data-name="025_SCIENCE"
   id="_025_SCIENCE"
   version="1.1"
   sodipodi:docname="homework.svg"
   inkscape:version="1.1.2 (b8e25be8, 2022-02-05)"
   xmlns:inkscape="http://www.inkscape.org/namespaces/inkscape"
   xmlns:sodipodi="http://sodipodi.sourceforge.net/DTD/sodipodi-0.dtd"
   xmlns="http://www.w3.org/2000/svg"
   xmlns:svg="http://www.w3.org/2000/svg">
  <sodipodi:namedview
     id="namedview21"
     pagecolor="#ffffff"
     bordercolor="#999999"
     borderopacity="1"
     inkscape:pageshadow="0"
     inkscape:pageopacity="0"
     inkscape:pagecheckerboard="0"
     showgrid="true"
     inkscape:zoom="30.007833"
     inkscape:cx="10.280649"
     inkscape:cy="6.848212"
     inkscape:window-width="1140"
     inkscape:window-height="1027"
     inkscape:window-x="780"
     inkscape:window-y="25"
     inkscape:window-maximized="0"
     inkscape:current-layer="_025_SCIENCE"
     inkscape:snap-bbox="true"
     inkscape:bbox-paths="true"
     inkscape:bbox-nodes="true"
     inkscape:snap-bbox-edge-midpoints="true"
     inkscape:snap-bbox-midpoints="true"
     inkscape:snap-intersection-paths="true"
     inkscape:object-paths="true"
     inkscape:snap-smooth-nodes="true"
     inkscape:snap-midpoints="true"
     inkscape:snap-nodes="true">
    <inkscape:grid
       type="xygrid"
       id="grid896"
       spacingx="0.5"
       spacingy="0.5" />
  </sodipodi:namedview>
  <defs
     id="defs4">
    <style
       id="style2">.cls-1{fill:#333;}</style>
  </defs>
  <path
     class="cls-1"
     d="M 20,2 H 5 C 3.6666672,2 3.6666672,4 5,4 h 15 c 1.333333,0 1.333333,-2 0,-2 z"
     id="path12"
     style="fill:#80c0f9;fill-opacity:1"
     sodipodi:nodetypes="sssss" />
  <path
     class="cls-1"
     d="M 16,6.5 H 9 c -1.3333328,0 -1.3333328,2 0,2 h 7 c 1.333333,0 1.333333,-2 0,-2 z"
     id="path12-1"
     style="fill:#80c0f9;fill-opacity:1"
     sodipodi:nodetypes="sssss" />
  <path
     class="cls-1"
     d="M 16,9.5 H 9 c -1.3333328,0 -1.3333328,2 0,2 h 7 c 1.333333,0 1.333333,-2 0,-2 z"
     id="path12-1-7"
     style="fill:#80c0f9;fill-opacity:1"
     sodipodi:nodetypes="sssss" />
  <path
     class="cls-1"
     d="M 16,12.5 H 9 c -1.333333,0 -1.333333,2 0,2 h 7 c 1.333333,0 1.333333,-2 0,-2 z"
     id="path12-1-4"
     style="fill:#80c0f9;fill-opacity:1"
     sodipodi:nodetypes="sssss" />
  <path
     class="cls-1"
     d="M 16,15.5 H 9 c -1.333333,0 -1.333333,2 0,2 h 7 c 1.333333,0 1.333333,-2 0,-2 z"
     id="path12-1-49"
     style="fill:#80c0f9;fill-opacity:1"
     sodipodi:nodetypes="sssss" />
  <path
     class="cls-1"
     d="M 20,20 H 5 c -1.3333328,0 -1.3333328,2 0,2 h 15 c 1.333333,0 1.333333,-2 0,-2 z"
     id="path12-9"
     style="fill:#80c0f9;fill-opacity:1"
     sodipodi:nodetypes="sssss" />
  <path
     class="cls-1"
     d="M 21,21 V 3 C 21,1.6666672 19,1.6666672 19,3 v 18 c 0,1.333333 2,1.333333 2,0 z"
     id="path12-9-7"
     style="fill:#80c0f9;fill-opacity:1"
     sodipodi:nodetypes="sssss" />
  <path
     class="cls-1"
     d="M 6,21 V 3.0000001 c 0,-1.3333328 -2,-1.3333328 -2,0 V 21 c 0,1.333333 2,1.333333 2,0 z"
     id="path12-9-7-8"
     style="fill:#80c0f9;fill-opacity:1"
     sodipodi:nodetypes="sssss" />
</svg>
