<?xml version="1.0" encoding="UTF-8" standalone="no"?>
<!-- Created with Inkscape (http://www.inkscape.org/) -->

<svg
   xmlns:dc="http://purl.org/dc/elements/1.1/"
   xmlns:cc="http://creativecommons.org/ns#"
   xmlns:rdf="http://www.w3.org/1999/02/22-rdf-syntax-ns#"
   xmlns:svg="http://www.w3.org/2000/svg"
   xmlns="http://www.w3.org/2000/svg"
   xmlns:sodipodi="http://sodipodi.sourceforge.net/DTD/sodipodi-0.dtd"
   xmlns:inkscape="http://www.inkscape.org/namespaces/inkscape"
   width="188mm"
   height="51mm"
   viewBox="0 0 188 51"
   version="1.1"
   id="svg569"
   inkscape:version="0.92.1 r15371"
   sodipodi:docname="limitis.svg">
  <defs
     id="defs563" />
  <sodipodi:namedview
     id="base"
     pagecolor="#ffffff"
     bordercolor="#666666"
     borderopacity="1.0"
     inkscape:pageopacity="0.0"
     inkscape:pageshadow="2"
     inkscape:zoom="0.98994949"
     inkscape:cx="193.37158"
     inkscape:cy="322.7465"
     inkscape:document-units="mm"
     inkscape:current-layer="layer1"
     showgrid="false"
     inkscape:window-width="1920"
     inkscape:window-height="1027"
     inkscape:window-x="-8"
     inkscape:window-y="-8"
     inkscape:window-maximized="1" />
  <metadata
     id="metadata566">
    <rdf:RDF>
      <cc:Work
         rdf:about="">
        <dc:format>image/svg+xml</dc:format>
        <dc:type
           rdf:resource="http://purl.org/dc/dcmitype/StillImage" />
        <dc:title></dc:title>
      </cc:Work>
    </rdf:RDF>
  </metadata>
  <g
     inkscape:label="Ebene 1"
     inkscape:groupmode="layer"
     id="layer1"
     transform="translate(0,-246)">
    <path
       d="m 21.752893,276.45102 c 0,1.3411 -0.122001,2.74496 -0.426994,4.08606 H 1.1116613 c -0.34421177,0 -0.62306257,-0.27886 -0.62306257,-0.62218 v -28.35413 c 1.52497827,-0.24406 2.98808387,-0.42788 4.51306327,-0.42788 1.5249783,0 3.0508278,0.18378 4.5758063,0.42788 v 20.80417 H 21.325899 c 0.304995,1.40038 0.426994,2.74323 0.426994,4.08608"
       style="fill:#616160;fill-opacity:1;fill-rule:nonzero;stroke:none;stroke-width:0.87141597"
       id="path30"
       inkscape:connector-curvature="0" />
    <path
       d="m 29.476512,280.53742 v -28.97718 c 1.464849,-0.24306 2.990698,-0.36599 4.515675,-0.36599 1.463108,0 2.988087,0.12276 4.574936,0.36599 v 28.97718 c -1.463979,0.2448 -2.988957,0.36601 -4.574936,0.36601 -1.46572,0 -2.990698,-0.12104 -4.515675,-0.36601"
       style="fill:#616160;fill-opacity:1;fill-rule:nonzero;stroke:none;stroke-width:0.87141597"
       id="path34"
       inkscape:connector-curvature="0" />
    <path
       d="m 94.134906,262.29809 v 18.24136 c -1.524975,0.24306 -3.049975,0.36597 -4.574951,0.36597 -1.524975,0 -3.049951,-0.12276 -4.574926,-0.36597 v -16.22927 c 0,-3.59808 -1.708854,-5.49079 -5.124783,-5.49079 -2.317979,0 -3.78372,0.85399 -4.880815,1.64698 0.06101,0.61174 0.122026,1.22085 0.122026,1.83172 v 18.24136 c -1.524975,0.24306 -3.049951,0.36597 -4.574951,0.36597 -1.524976,0 -3.049951,-0.12276 -4.514802,-0.36597 v -16.22927 c 0,-3.59808 -1.770707,-5.49079 -5.186661,-5.49079 -2.012979,0 -3.598078,0.54986 -4.696926,1.21999 v 20.50007 c -1.524976,0.24306 -3.049976,0.36597 -4.574951,0.36597 -1.524976,0 -2.988938,-0.12276 -4.513939,-0.36597 v -25.13602 c 2.073103,-1.76808 7.502037,-4.81805 14.640663,-4.81805 4.086082,0 7.260652,1.03613 9.455731,2.74496 2.318859,-1.46572 5.674665,-2.74496 9.577768,-2.74496 9.089728,0 13.421542,4.94093 13.421542,11.71271"
       style="fill:#616160;fill-opacity:1;fill-rule:nonzero;stroke:none;stroke-width:0.87141597"
       id="path38"
       inkscape:connector-curvature="0" />
    <path
       d="m 102.55973,280.53742 v -28.97718 c 1.46399,-0.24306 2.98897,-0.36599 4.51394,-0.36599 1.46485,0 2.98983,0.12276 4.57668,0.36599 v 28.97718 c -1.46572,0.2448 -2.99072,0.36601 -4.57668,0.36601 -1.46399,0 -2.98896,-0.12104 -4.51394,-0.36601"
       style="fill:#616160;fill-opacity:1;fill-rule:nonzero;stroke:none;stroke-width:0.87141597"
       id="path42"
       inkscape:connector-curvature="0" />
    <path
       d="m 139.70045,255.15996 c 0,-1.21996 -0.18377,-2.44084 -0.42699,-3.59981 l -0.0837,-0.008 c -7.12122,-0.57512 -14.27816,-0.57338 -21.39938,0.008 -0.18378,1.22085 -0.30585,2.44083 -0.30585,3.65906 0,1.34285 0.12202,2.62471 0.30585,3.78369 h 6.19576 v 21.53445 c 1.52674,0.24479 3.05171,0.366 4.51481,0.366 1.58685,0 3.11183,-0.12104 4.57495,-0.366 V 259.0029 h 6.19749 c 0.24307,-1.28184 0.427,-2.50182 0.427,-3.84294"
       style="fill:#616160;fill-opacity:1;fill-rule:nonzero;stroke:none;stroke-width:0.87141597"
       id="path46"
       inkscape:connector-curvature="0" />
    <path
       d="m 145.24891,251.91602 c 0,-2.99068 2.44087,-5.42891 5.49082,-5.42891 2.98807,0 5.49078,2.43823 5.49078,5.42891 0,2.98897 -2.50271,5.49082 -5.49078,5.49082 -2.98897,0 -5.49082,-2.50185 -5.49082,-5.49082"
       style="fill:#d53425;fill-opacity:1;fill-rule:nonzero;stroke:none;stroke-width:0.87141597"
       id="path50"
       inkscape:connector-curvature="0" />
    <path
       d="m 146.16453,280.53742 v -18.2666 c 1.46398,-0.24306 2.98895,-0.36601 4.51394,-0.36601 1.4631,0 2.98983,0.12277 4.57667,0.36601 v 18.2666 c -1.46571,0.2448 -2.99071,0.36601 -4.57667,0.36601 -1.46399,0 -2.98896,-0.12104 -4.51394,-0.36601"
       style="fill:#616160;fill-opacity:1;fill-rule:nonzero;stroke:none;stroke-width:0.87141597"
       id="path54"
       inkscape:connector-curvature="0" />
    <path
       d="m 161.23225,277.91463 c 0.48888,-2.86782 1.82999,-5.00192 3.59983,-6.10165 2.1341,1.34286 5.12306,2.92884 9.51586,2.92884 2.80598,0 3.78369,-1.0361 3.78369,-2.31797 0,-1.52497 -1.52671,-2.31797 -6.28378,-3.17019 -4.75881,-0.97775 -9.76159,-2.68573 -9.76159,-9.09152 0,-5.97876 5.49078,-9.39472 12.74968,-9.39472 6.04065,0 9.76073,1.40385 11.77458,2.68396 -0.36599,2.92884 -1.52498,5.06292 -3.17283,6.34479 -1.95196,-1.09799 -5.18579,-2.13584 -8.47888,-2.13584 -2.86783,0 -4.21067,0.61086 -4.21067,2.07483 0,1.46312 1.28184,2.01297 5.85678,2.86784 5.73565,0.9751 10.55372,2.86608 10.55372,9.15073 0,6.03804 -4.63594,9.81999 -13.11569,9.81999 -6.52689,0 -10.91971,-2.07309 -12.8107,-3.65909"
       style="fill:#616160;fill-opacity:1;fill-rule:nonzero;stroke:none;stroke-width:0.87141597"
       id="path58"
       inkscape:connector-curvature="0" />
    <path
       d="m 0.34708146,295.48596 v -8.37691 c 0.31283807,-0.0655 0.62829087,-0.0803 0.95507284,-0.0803 0.3267797,0 0.6396178,0.0148 0.9916715,0.0803 v 8.37691 c -0.3128403,0.0531 -0.6256784,0.0803 -0.952457,0.0803 -0.3267819,0 -0.65356387,-0.027 -0.99428734,-0.0803"
       style="fill:#616160;fill-opacity:1;fill-rule:nonzero;stroke:none;stroke-width:0.87141597"
       id="path62"
       inkscape:connector-curvature="0" />
    <path
       d="m 11.835479,287.10712 v 8.33945 c -0.628289,0.11757 -1.293181,0.14475 -1.8691867,0.10547 l -3.2416671,-4.77187 -0.2744959,-0.49584 0.052295,0.6013 v 4.60018 c -0.3398546,0.0531 -0.6666332,0.0785 -0.9803436,0.0785 -0.326782,0 -0.5882053,-0.0251 -0.9542017,-0.0785 v -8.31241 c 0.4444232,-0.14475 1.2286976,-0.20923 1.8691866,-0.13067 l 3.2285987,4.87556 0.287565,0.50891 -0.05316,-0.66665 v -4.65336 c 0.3546637,-0.0514 0.6030187,-0.0785 0.9411287,-0.0785 0.326778,0 0.642232,0.027 0.994284,0.0785"
       style="fill:#616160;fill-opacity:1;fill-rule:nonzero;stroke:none;stroke-width:0.87141597"
       id="path66"
       inkscape:connector-curvature="0" />
    <path
       d="m 20.142862,288.83287 h -2.378967 v 6.65502 c -0.32591,0.0645 -0.65269,0.0896 -0.979472,0.0896 -0.326781,0 -0.641361,-0.0252 -0.968143,-0.0896 v -6.65502 h -2.392036 c -0.06536,-0.28757 -0.09063,-0.58733 -0.09063,-0.86095 0,-0.3015 0.02527,-0.58908 0.09063,-0.87666 h 6.718618 c 0.07843,0.28758 0.104568,0.57516 0.104568,0.86271 0,0.28757 -0.02614,0.57515 -0.104568,0.8749"
       style="fill:#616160;fill-opacity:1;fill-rule:nonzero;stroke:none;stroke-width:0.87141597"
       id="path70"
       inkscape:connector-curvature="0" />
    <path
       d="m 27.503885,294.61116 c 0,0.28755 -0.02526,0.58906 -0.09149,0.87488 h -5.672922 v -8.39085 h 5.541333 c 0.07929,0.27363 0.103696,0.58906 0.103696,0.87491 0,0.28755 -0.02446,0.57513 -0.103696,0.86269 h -3.59372 v 1.51627 h 3.202456 c 0.0645,0.28757 0.08977,0.57601 0.08977,0.86356 0,0.28757 -0.02526,0.56119 -0.08977,0.84877 h -3.202456 v 1.68706 h 3.725303 c 0.06623,0.28756 0.09149,0.57514 0.09149,0.86271"
       style="fill:#616160;fill-opacity:1;fill-rule:nonzero;stroke:none;stroke-width:0.87141597"
       id="path74"
       inkscape:connector-curvature="0" />
    <path
       d="m 31.394671,290.97744 c 0.352051,0.0148 0.706716,0.0148 1.033498,0.0148 1.017814,0 1.422151,-0.54986 1.422151,-1.23043 0,-0.71891 -0.469693,-1.16248 -1.436092,-1.16248 -0.352054,0 -0.678834,0.0123 -1.019557,0.0383 z m 4.915657,4.41634 c -0.432223,0.1193 -1.073584,0.15858 -1.64872,0.15858 -0.169058,0 -0.35118,0 -0.495835,-0.0148 l -1.726276,-2.94104 h -0.08976 c -0.301509,0 -0.628291,0 -0.955071,-0.0124 v 2.90181 c -0.31284,0.0645 -0.63962,0.0785 -0.966401,0.0785 -0.326782,0 -0.642234,-0.0148 -0.994285,-0.0785 v -8.26188 c 0.821744,-0.16994 1.895328,-0.27537 2.821644,-0.27537 2.535819,0 3.583262,1.06051 3.583262,2.69442 0,1.21475 -0.588205,2.05043 -1.489249,2.52013 z"
       style="fill:#616160;fill-opacity:1;fill-rule:nonzero;stroke:none;stroke-width:0.87141597"
       id="path78"
       inkscape:connector-curvature="0" />
    <path
       d="m 45.153461,287.10712 v 8.33945 c -0.628284,0.11757 -1.293184,0.14475 -1.86919,0.10547 l -3.241668,-4.77187 -0.274496,-0.49584 0.0523,0.6013 v 4.60018 c -0.339853,0.0531 -0.666634,0.0785 -0.980344,0.0785 -0.326782,0 -0.588206,-0.0251 -0.954201,-0.0785 v -8.31241 c 0.444423,-0.14475 1.228697,-0.20923 1.869188,-0.13067 l 3.228595,4.87556 0.287569,0.50891 -0.05316,-0.66663 v -4.65338 c 0.354667,-0.0514 0.603019,-0.0785 0.941124,-0.0785 0.326777,0 0.642241,0.027 0.994288,0.0785"
       style="fill:#616160;fill-opacity:1;fill-rule:nonzero;stroke:none;stroke-width:0.87141597"
       id="path82"
       inkscape:connector-curvature="0" />
    <path
       d="m 53.210665,294.61116 c 0,0.28755 -0.0252,0.58906 -0.09139,0.87488 h -5.67294 v -8.39085 h 5.541351 c 0.08028,0.27363 0.103752,0.58906 0.103752,0.87491 0,0.28755 -0.0247,0.57513 -0.103752,0.86269 h -3.592842 v 1.51627 h 3.201569 c 0.06447,0.28757 0.08967,0.57601 0.08967,0.86356 0,0.28757 -0.0252,0.56119 -0.08967,0.84877 h -3.201569 v 1.68706 h 3.724427 c 0.0662,0.28756 0.09139,0.57514 0.09139,0.86271"
       style="fill:#616160;fill-opacity:1;fill-rule:nonzero;stroke:none;stroke-width:0.87141597"
       id="path86"
       inkscape:connector-curvature="0" />
    <path
       d="m 61.250873,288.83287 h -2.378982 v 6.65502 c -0.326776,0.0645 -0.653554,0.0896 -0.980331,0.0896 -0.326776,0 -0.642241,-0.0252 -0.969017,-0.0896 v -6.65502 h -2.39116 c -0.06447,-0.28757 -0.08967,-0.58733 -0.08967,-0.86095 0,-0.3015 0.0252,-0.58908 0.08967,-0.87666 h 6.71949 c 0.07856,0.28758 0.103752,0.57516 0.103752,0.86271 0,0.28757 -0.0252,0.57515 -0.103752,0.8749"
       style="fill:#616160;fill-opacity:1;fill-rule:nonzero;stroke:none;stroke-width:0.87141597"
       id="path90"
       inkscape:connector-curvature="0" />
    <path
       d="m 65.694733,294.66222 c 0.06447,-0.67709 0.417431,-1.25222 0.901928,-1.55373 0.549856,0.44441 1.424761,0.79647 2.405117,0.79647 0.941129,0 1.307108,-0.30152 1.307108,-0.75727 0,-0.43047 -0.209223,-0.68144 -1.687042,-1.06051 -1.41083,-0.33898 -2.653467,-0.88884 -2.664805,-2.57328 0,-1.60864 1.280109,-2.6404 3.214661,-2.6404 1.45003,0 2.419048,0.47056 2.915746,0.86359 -0.03928,0.59864 -0.366002,1.26615 -0.901903,1.57899 -0.483656,-0.33811 -1.217366,-0.65355 -2.144564,-0.65355 -0.771207,0 -1.189479,0.28755 -1.189479,0.68055 0,0.41743 0.18378,0.60129 1.686178,0.96729 1.569438,0.39127 2.639534,1.06051 2.667422,2.56109 0.03928,1.81778 -1.228704,2.82513 -3.242549,2.82513 -1.687067,0 -2.731893,-0.56294 -3.267818,-1.03437"
       style="fill:#d53425;fill-opacity:1;fill-rule:nonzero;stroke:none;stroke-width:0.87141597"
       id="path94"
       inkscape:connector-curvature="0" />
    <path
       d="m 79.853528,294.61116 c 0,0.28755 -0.0252,0.58906 -0.09139,0.87488 h -5.672945 v -8.39085 h 5.54136 c 0.08028,0.27363 0.103752,0.58906 0.103752,0.87491 0,0.28755 -0.0247,0.57513 -0.103752,0.86269 h -3.592876 v 1.51627 h 3.201594 c 0.06447,0.28757 0.08967,0.57601 0.08967,0.86356 0,0.28757 -0.0252,0.56119 -0.08967,0.84877 h -3.201594 v 1.68706 h 3.724461 c 0.0662,0.28756 0.09139,0.57514 0.09139,0.86271"
       style="fill:#d53425;fill-opacity:1;fill-rule:nonzero;stroke:none;stroke-width:0.87141597"
       id="path98"
       inkscape:connector-curvature="0" />
    <path
       d="m 83.744319,290.97744 c 0.352047,0.0148 0.706712,0.0148 1.033489,0.0148 1.017828,0 1.422143,-0.54986 1.422143,-1.23043 0,-0.71891 -0.469676,-1.16248 -1.436075,-1.16248 -0.352072,0 -0.678848,0.0123 -1.019557,0.0383 z m 4.915635,4.41634 c -0.432203,0.1193 -1.072689,0.15858 -1.647841,0.15858 -0.169947,0 -0.352046,0 -0.496699,-0.0148 l -1.726268,-2.94104 h -0.08967 c -0.301508,0 -0.628309,0 -0.955087,-0.0124 v 2.90181 c -0.312844,0.0645 -0.639621,0.0785 -0.966398,0.0785 -0.326776,0 -0.642216,-0.0148 -0.994288,-0.0785 v -8.26188 c 0.821748,-0.16994 1.896216,-0.27537 2.82166,-0.27537 2.535812,0 3.583258,1.06051 3.583258,2.69442 0,1.21475 -0.58733,2.05043 -1.489258,2.52013 z"
       style="fill:#d53425;fill-opacity:1;fill-rule:nonzero;stroke:none;stroke-width:0.87141597"
       id="path102"
       inkscape:connector-curvature="0" />
    <path
       d="m 97.285318,287.15984 c -0.600396,2.77285 -1.580752,5.54135 -2.953219,8.30023 -0.326778,0.0672 -0.666646,0.0783 -0.993423,0.0783 -0.378181,0 -0.665757,-0.0123 -1.058758,-0.0783 -1.332402,-2.6918 -2.312733,-5.46289 -2.966312,-8.30023 0.40434,-0.0906 0.980356,-0.15686 1.475325,-0.15686 0.236147,0 0.459227,0.0148 0.653555,0.0393 0.471428,2.24827 1.138938,4.44423 1.960686,6.60011 0.810408,-2.18114 1.437828,-4.43027 1.856989,-6.60011 0.156113,-0.0251 0.338114,-0.0251 0.535925,-0.0251 0.5359,0 1.280109,0.0645 1.489232,0.14303"
       style="fill:#d53425;fill-opacity:1;fill-rule:nonzero;stroke:none;stroke-width:0.87141597"
       id="path106"
       inkscape:connector-curvature="0" />
    <path
       d="m 98.755849,295.48596 v -8.37691 c 0.314577,-0.0655 0.628287,-0.0803 0.955054,-0.0803 0.326777,0 0.639617,0.0148 0.993427,0.0803 v 8.37691 c -0.31458,0.0531 -0.62742,0.0803 -0.954197,0.0803 -0.326797,0 -0.653577,-0.027 -0.994284,-0.0803"
       style="fill:#d53425;fill-opacity:1;fill-rule:nonzero;stroke:none;stroke-width:0.87141597"
       id="path110"
       inkscape:connector-curvature="0" />
    <path
       d="m 102.53587,291.29063 c 0,-2.61427 1.81604,-4.47125 4.40501,-4.47125 1.17554,0 2.02515,0.35379 2.5881,0.81216 -0.0914,0.58908 -0.49672,1.2287 -1.05792,1.53021 -0.48536,-0.34246 -0.92979,-0.48539 -1.47792,-0.48539 -1.41255,0 -2.33973,0.98035 -2.33973,2.61427 0,1.59468 0.94113,2.60031 2.28747,2.60031 0.82347,0 1.29317,-0.24838 1.68617,-0.58646 0.61436,0.35377 0.92806,0.80954 1.05879,1.56679 -0.49673,0.4052 -1.33413,0.84963 -2.82339,0.84963 -2.6674,0 -4.32658,-1.81603 -4.32658,-4.43027"
       style="fill:#d53425;fill-opacity:1;fill-rule:nonzero;stroke:none;stroke-width:0.87141597"
       id="path114"
       inkscape:connector-curvature="0" />
    <path
       d="m 116.94829,294.61116 c 0,0.28755 -0.0251,0.58906 -0.0914,0.87488 h -5.67291 v -8.39085 h 5.54133 c 0.0803,0.27363 0.10547,0.58906 0.10547,0.87491 0,0.28755 -0.0252,0.57513 -0.10547,0.86269 h -3.59284 v 1.51627 h 3.20156 c 0.0645,0.28757 0.0914,0.57601 0.0914,0.86356 0,0.28757 -0.027,0.56119 -0.0914,0.84877 h -3.20156 v 1.68706 h 3.72442 c 0.0662,0.28756 0.0914,0.57514 0.0914,0.86271"
       style="fill:#d53425;fill-opacity:1;fill-rule:nonzero;stroke:none;stroke-width:0.87141597"
       id="path118"
       inkscape:connector-curvature="0" />
    <path
       d="m 126.68533,289.81322 c 0,-0.78254 -0.53593,-1.2801 -1.69838,-1.2801 -0.31372,0 -0.61436,0.0124 -0.90193,0.0393 v 2.65344 c 0.28757,0.0148 0.58821,0.0148 0.91499,0.0148 1.21561,0 1.68532,-0.62829 1.68532,-1.42649 m 1.99991,-0.0251 c 0,2.01123 -1.43699,3.13623 -3.68523,3.13623 -0.31457,0 -0.61435,0 -0.91499,-0.0123 v 2.57502 c -0.31372,0.0645 -0.64049,0.0785 -0.96727,0.0785 -0.32678,0 -0.64137,-0.0148 -0.99343,-0.0785 v -8.32811 c 0.78428,-0.16821 1.78991,-0.28758 2.7842,-0.28758 2.71794,0 3.77672,1.16422 3.77672,2.91578"
       style="fill:#616160;fill-opacity:1;fill-rule:nonzero;stroke:none;stroke-width:0.87141597"
       id="path122"
       inkscape:connector-curvature="0" />
    <path
       d="m 132.22536,290.97744 c 0.35206,0.0148 0.70496,0.0148 1.03177,0.0148 1.01955,0 1.42386,-0.54986 1.42386,-1.23043 0,-0.71891 -0.46967,-1.16248 -1.43606,-1.16248 -0.35381,0 -0.68059,0.0123 -1.01957,0.0383 z m 4.91391,4.41634 c -0.43047,0.1193 -1.07272,0.15858 -1.64784,0.15858 -0.16822,0 -0.35205,0 -0.49497,-0.0148 l -1.72627,-2.94104 h -0.0914 c -0.29977,0 -0.62655,0 -0.95333,-0.0124 v 2.90181 c -0.31457,0.0645 -0.64137,0.0785 -0.96815,0.0785 -0.32677,0 -0.64049,-0.0148 -0.99253,-0.0785 v -8.26188 c 0.82175,-0.16994 1.89446,-0.27537 2.82164,-0.27537 2.5358,0 3.58325,1.06051 3.58325,2.69442 0,1.21475 -0.58905,2.05043 -1.49099,2.52013 z"
       style="fill:#616160;fill-opacity:1;fill-rule:nonzero;stroke:none;stroke-width:0.87141597"
       id="path126"
       inkscape:connector-curvature="0" />
    <path
       d="m 144.83702,291.27694 c 0,-1.6069 -0.90193,-2.61426 -2.28747,-2.61426 -1.38556,0 -2.28749,1.00736 -2.28749,2.61426 0,1.56942 0.90193,2.60205 2.28749,2.60205 1.38554,0 2.28747,-1.03263 2.28747,-2.60205 m -6.6925,0 c 0,-2.62646 1.84392,-4.45557 4.40503,-4.45557 2.56108,0 4.405,1.76289 4.405,4.45557 0,2.60205 -1.84392,4.44596 -4.405,4.44596 -2.56111,0 -4.40503,-1.7768 -4.40503,-4.44596"
       style="fill:#616160;fill-opacity:1;fill-rule:nonzero;stroke:none;stroke-width:0.87141597"
       id="path130"
       inkscape:connector-curvature="0" />
    <path
       d="m 155.73826,287.15984 c -0.60215,2.77285 -1.58251,5.54135 -2.95498,8.30023 -0.32678,0.0672 -0.66664,0.0783 -0.99341,0.0783 -0.37821,0 -0.66576,-0.0123 -1.05876,-0.0783 -1.33241,-2.6918 -2.31276,-5.46289 -2.96631,-8.30023 0.40433,-0.0906 0.98033,-0.15686 1.47705,-0.15686 0.23441,0 0.45749,0.0148 0.65355,0.0393 0.4697,2.24827 1.13721,4.44423 1.96068,6.60011 0.81042,-2.18114 1.43784,-4.43027 1.85527,-6.60011 0.15685,-0.0251 0.33984,-0.0251 0.5359,-0.0251 0.53592,0 1.28186,0.0645 1.49101,0.14303"
       style="fill:#616160;fill-opacity:1;fill-rule:nonzero;stroke:none;stroke-width:0.87141597"
       id="path134"
       inkscape:connector-curvature="0" />
    <path
       d="m 157.20876,295.48596 v -8.37691 c 0.31286,-0.0655 0.62656,-0.0803 0.95333,-0.0803 0.32678,0 0.64136,0.0148 0.99341,0.0803 v 8.37691 c -0.31282,0.0531 -0.62742,0.0803 -0.9542,0.0803 -0.32677,0 -0.65355,-0.027 -0.99254,-0.0803"
       style="fill:#616160;fill-opacity:1;fill-rule:nonzero;stroke:none;stroke-width:0.87141597"
       id="path138"
       inkscape:connector-curvature="0" />
    <path
       d="m 166.79433,291.22588 c 0,-1.50494 -0.90015,-2.47134 -2.57328,-2.47134 -0.26229,0 -0.53593,0 -0.83743,0.0251 v 5.02109 c 0.28757,0.0148 0.57514,0.0251 0.88797,0.0251 1.60864,0 2.52274,-1.01956 2.52274,-2.60031 m 2.14456,-0.0251 c 0,2.75716 -1.89618,4.44162 -4.77101,4.44162 -1.17552,0 -1.97375,-0.0645 -2.74496,-0.16823 v -8.33943 c 0.67885,-0.11759 1.50319,-0.20998 2.70576,-0.20998 3.09788,0 4.81021,1.71235 4.81021,4.27604"
       style="fill:#616160;fill-opacity:1;fill-rule:nonzero;stroke:none;stroke-width:0.87141597"
       id="path142"
       inkscape:connector-curvature="0" />
    <path
       d="m 176.53815,294.61116 c 0,0.28755 -0.0251,0.58906 -0.0914,0.87488 h -5.6729 v -8.39085 h 5.54132 c 0.0803,0.27363 0.10547,0.58906 0.10547,0.87491 0,0.28755 -0.0251,0.57513 -0.10547,0.86269 h -3.59284 v 1.51627 h 3.20159 c 0.0645,0.28757 0.0914,0.57601 0.0914,0.86356 0,0.28757 -0.027,0.56119 -0.0914,0.84877 h -3.20159 v 1.68706 h 3.72442 c 0.0662,0.28756 0.0914,0.57514 0.0914,0.86271"
       style="fill:#616160;fill-opacity:1;fill-rule:nonzero;stroke:none;stroke-width:0.87141597"
       id="path146"
       inkscape:connector-curvature="0" />
    <path
       d="m 180.4306,290.97744 c 0.35205,0.0148 0.70671,0.0148 1.03352,0.0148 1.0178,0 1.42214,-0.54986 1.42214,-1.23043 0,-0.71891 -0.4697,-1.16248 -1.4361,-1.16248 -0.35381,0 -0.68058,0.0123 -1.01956,0.0383 z m 4.91394,4.41634 c -0.43051,0.1193 -1.07272,0.15858 -1.64788,0.15858 -0.16821,0 -0.35204,0 -0.49494,-0.0148 l -1.72629,-2.94104 h -0.0914 c -0.29976,0 -0.62653,0 -0.95333,-0.0124 v 2.90181 c -0.31458,0.0645 -0.64135,0.0785 -0.96813,0.0785 -0.32678,0 -0.64049,-0.0148 -0.99256,-0.0785 v -8.26188 c 0.82175,-0.16994 1.89446,-0.27537 2.82166,-0.27537 2.53582,0 3.58326,1.06051 3.58326,2.69442 0,1.21475 -0.58909,2.05043 -1.49099,2.52013 z"
       style="fill:#616160;fill-opacity:1;fill-rule:nonzero;stroke:none;stroke-width:0.87141597"
       id="path150"
       inkscape:connector-curvature="0" />
  </g>
</svg>
