<?xml version="1.0" encoding="UTF-8" standalone="no"?>
<svg
   width="24px"
   height="24px"
   viewBox="0 0 24 24"
   data-name="025_SCIENCE"
   id="_025_SCIENCE"
   version="1.1"
   sodipodi:docname="messages.svg"
   inkscape:version="1.1.2 (b8e25be8, 2022-02-05)"
   xmlns:inkscape="http://www.inkscape.org/namespaces/inkscape"
   xmlns:sodipodi="http://sodipodi.sourceforge.net/DTD/sodipodi-0.dtd"
   xmlns="http://www.w3.org/2000/svg"
   xmlns:svg="http://www.w3.org/2000/svg">
  <sodipodi:namedview
     id="namedview21"
     pagecolor="#ffffff"
     bordercolor="#999999"
     borderopacity="1"
     inkscape:pageshadow="0"
     inkscape:pageopacity="0"
     inkscape:pagecheckerboard="0"
     showgrid="true"
     inkscape:zoom="8"
     inkscape:cx="-2.5625"
     inkscape:cy="-25.5625"
     inkscape:window-width="1920"
     inkscape:window-height="1027"
     inkscape:window-x="0"
     inkscape:window-y="25"
     inkscape:window-maximized="1"
     inkscape:current-layer="_025_SCIENCE"
     inkscape:snap-bbox="true"
     inkscape:snap-object-midpoints="true"
     inkscape:snap-center="true"
     inkscape:snap-smooth-nodes="true"
     inkscape:snap-midpoints="true"
     inkscape:object-nodes="true"
     inkscape:object-paths="true"
     inkscape:snap-intersection-paths="true">
    <inkscape:grid
       type="xygrid"
       id="grid828"
       spacingx="0.5"
       spacingy="0.5" />
  </sodipodi:namedview>
  <defs
     id="defs4">
    <style
       id="style2">.cls-1{fill:#333;}</style>
  </defs>
  <path
     class="cls-1"
     d="M 20,19.5 H 5 c -0.5522847,0 -1,-0.447715 -1,-1 V 6 C 4,5.4477153 4.4477153,5 5,5 h 15 c 0.552285,0 1,0.4477153 1,1 v 12.5 c 0,1.333333 -2,1.333333 -2,0 V 7 H 6 v 10.5 h 14 c 1.333333,0 1.333333,2 0,2 z"
     id="path6"
     style="fill:#80c0f9;fill-opacity:1"
     sodipodi:nodetypes="ssssssssscccss" />
  <path
     class="cls-1"
     d="M 11,11.5 C 11,11 11.25,10 11.75,10 h 1.5 c 0.5,0 0.75,1.5 0.75,1.5 -1.5,1 -1.5,1 -3,0 z"
     id="path6-6"
     style="fill:#80c0f9;fill-opacity:1"
     sodipodi:nodetypes="csscc" />
  <path
     class="cls-1"
     d="M 11,11.5 4.5,7 C 3.9948025,6.6502479 5.4948025,5.1502479 6,5.5 l 6.5,4.5 c 1.010395,0.699504 -0.109668,2.462538 -1.5,1.5 z"
     id="path18"
     style="fill:#80c0f9;fill-opacity:1"
     sodipodi:nodetypes="sssss" />
  <path
     class="cls-1"
     d="M 14,11.5 20.5,7 C 21.005198,6.6502479 19.505198,5.1502478 19,5.5 L 12.5,10 c -1.010395,0.699504 0.109668,2.462538 1.5,1.5 z"
     id="path18-8"
     style="fill:#80c0f9;fill-opacity:1"
     sodipodi:nodetypes="sssss" />
</svg>
