<?xml version="1.0" encoding="UTF-8" standalone="no"?>
<svg
   width="24px"
   height="24px"
   viewBox="0 0 24 24"
   data-name="025_SCIENCE"
   id="_025_SCIENCE"
   version="1.1"
   sodipodi:docname="register.svg"
   inkscape:version="1.1.2 (b8e25be8, 2022-02-05)"
   xmlns:inkscape="http://www.inkscape.org/namespaces/inkscape"
   xmlns:sodipodi="http://sodipodi.sourceforge.net/DTD/sodipodi-0.dtd"
   xmlns="http://www.w3.org/2000/svg"
   xmlns:svg="http://www.w3.org/2000/svg">
  <sodipodi:namedview
     id="namedview21"
     pagecolor="#ffffff"
     bordercolor="#999999"
     borderopacity="1"
     inkscape:pageshadow="0"
     inkscape:pageopacity="0"
     inkscape:pagecheckerboard="0"
     showgrid="true"
     inkscape:zoom="2"
     inkscape:cx="-173.25"
     inkscape:cy="47.75"
     inkscape:window-width="1920"
     inkscape:window-height="1027"
     inkscape:window-x="0"
     inkscape:window-y="25"
     inkscape:window-maximized="1"
     inkscape:current-layer="_025_SCIENCE"
     inkscape:object-paths="true"
     inkscape:snap-intersection-paths="true"
     inkscape:snap-bbox="true"
     inkscape:bbox-paths="true"
     inkscape:bbox-nodes="true"
     inkscape:snap-bbox-midpoints="true"
     inkscape:snap-bbox-edge-midpoints="true"
     inkscape:snap-object-midpoints="true"
     inkscape:snap-smooth-nodes="true"
     inkscape:snap-midpoints="true">
    <inkscape:grid
       type="xygrid"
       id="grid828"
       spacingx="0.5"
       spacingy="0.5" />
  </sodipodi:namedview>
  <defs
     id="defs4">
    <style
       id="style2">.cls-1{fill:#333;}</style>
  </defs>
  <path
     class="cls-1"
     d="M 5,19 C 4.5,19 4,18.552285 4,18 V 3 C 4,2.5 4.5,2 5,2 h 12 c 0.5,0 1,0.5 1,1 0,0.4806844 -0.462115,0.9613688 -0.942082,0.9977903 C 17.038631,3.9992538 17.019316,4 17,4 17.5,4 6.5,4 6,4 v 14 c 0,0.5 -0.5,1 -1,1 z"
     id="path6"
     style="fill:#80c0f9;fill-opacity:1"
     sodipodi:nodetypes="csssssscccc" />
  <path
     class="cls-1"
     d="M 13,9 H 9 A 1,1 0 0 1 9,7 h 4 a 1,1 0 0 1 0,2 z"
     id="path14"
     style="fill:#80c0f9;fill-opacity:1" />
  <path
     class="cls-1"
     d="M 16,18 V 3 c 0,-1.3333328 2,-1.3333328 2,0 v 15 c 0,1.333333 -2,1.333333 -2,0 z"
     id="path16"
     style="fill:#80c0f9;fill-opacity:1"
     sodipodi:nodetypes="sssss" />
  <path
     class="cls-1"
     d="M 17,19 H 5 C 3.6666672,19 3.6666672,17 5,17 h 12 c 1.333333,0 1.333333,2 0,2 z"
     id="path18"
     style="fill:#80c0f9;fill-opacity:1"
     sodipodi:nodetypes="sssss" />
  <path
     class="cls-1"
     d="M 20,22 H 6.9999999 c -1.3333328,0 -1.3333328,-2 0,-2 H 20 c 1.333333,0 1.333333,2 0,2 z"
     id="path18-6"
     style="fill:#80c0f9;fill-opacity:1"
     sodipodi:nodetypes="sssss" />
  <path
     class="cls-1"
     d="M 19,21 V 5 c 0,-1.333333 2,-1.333333 2,0 v 16 c 0,1.333333 -2,1.333333 -2,0 z"
     id="path18-6-7"
     style="fill:#80c0f9;fill-opacity:1"
     sodipodi:nodetypes="sssss" />
</svg>
