<?xml version="1.0" encoding="UTF-8" standalone="no"?>
<svg
   width="24px"
   height="24px"
   viewBox="0 0 24 24"
   data-name="025_SCIENCE"
   id="_025_SCIENCE"
   version="1.1"
   sodipodi:docname="semester.svg"
   inkscape:version="1.1.2 (b8e25be8, 2022-02-05)"
   xmlns:inkscape="http://www.inkscape.org/namespaces/inkscape"
   xmlns:sodipodi="http://sodipodi.sourceforge.net/DTD/sodipodi-0.dtd"
   xmlns="http://www.w3.org/2000/svg"
   xmlns:svg="http://www.w3.org/2000/svg">
  <sodipodi:namedview
     id="namedview21"
     pagecolor="#ffffff"
     bordercolor="#999999"
     borderopacity="1"
     inkscape:pageshadow="0"
     inkscape:pageopacity="0"
     inkscape:pagecheckerboard="0"
     showgrid="true"
     inkscape:zoom="8"
     inkscape:cx="13.3125"
     inkscape:cy="-14.6875"
     inkscape:window-width="1920"
     inkscape:window-height="1027"
     inkscape:window-x="0"
     inkscape:window-y="25"
     inkscape:window-maximized="1"
     inkscape:current-layer="_025_SCIENCE"
     inkscape:object-paths="true"
     inkscape:snap-intersection-paths="true"
     inkscape:snap-bbox="false"
     inkscape:bbox-paths="true"
     inkscape:bbox-nodes="true"
     inkscape:snap-bbox-midpoints="true"
     inkscape:snap-bbox-edge-midpoints="true"
     inkscape:snap-object-midpoints="true"
     inkscape:snap-smooth-nodes="true"
     inkscape:snap-midpoints="true"
     inkscape:snap-nodes="false">
    <inkscape:grid
       type="xygrid"
       id="grid828"
       spacingx="0.5"
       spacingy="0.5" />
  </sodipodi:namedview>
  <defs
     id="defs4">
    <style
       id="style2">.cls-1{fill:#333;}</style>
  </defs>
  <path
     class="cls-1"
     d="m 17.835787,16.914213 -3.52075,-4.581029 c -0.941127,-0.942807 0.473086,-2.35702 1.414213,-1.414213 l 3.559813,4.737279 c 0.941127,0.942808 -0.512149,2.20077 -1.453276,1.257963 z"
     id="path14"
     style="fill:#80c0f9;fill-opacity:1"
     sodipodi:nodetypes="ccccc" />
  <path
     class="cls-1"
     d="M 18.75,17.5 C 14.772224,17.5 11.341946,16.514503 8.8178675,14.543509 5.9483121,12.30274 4.25,8.788237 4.25,3.9999998 c 0,-0.5 0.5,-0.9999999 1,-0.9999998 0.5,-2e-7 1,0.4999998 1,0.9999998 C 6.25,12 12.25,15.5 18.75,15.5 c 0.5,0 0.986175,0.504155 1,0.988951 -6.55e-4,0.531441 -0.5,1.011049 -1,1.011049 z"
     id="path18-6-7"
     style="fill:#80c0f9;fill-opacity:1"
     sodipodi:nodetypes="cscccccc" />
  <path
     class="cls-1"
     d="m 19.421875,17.203125 -4.596654,3.685962 c -0.942807,0.941127 -2.35702,-0.473086 -1.414213,-1.414213 l 4.424779,-3.389087 c 0.942807,-0.941127 2.528895,0.176211 1.586088,1.117338 z"
     id="path14-3"
     style="fill:#80c0f9;fill-opacity:1"
     sodipodi:nodetypes="ccccc" />
</svg>
